<svg height="512" width="512" xmlns="http://www.w3.org/2000/svg"><path d="M512 121.8V447a65 65 0 01-65 65H65a65 65 0 01-65-65V121.7l256-56z" fill="#e7f2ff"/><path d="M512 121.8V447a65 65 0 01-65 65H256V65.7z" fill="#9dcfff"/><path d="M512 65v56.8H0V65A65 65 0 0165 0h382a65 65 0 0165 65z" fill="#00ddc0"/><path d="M512 65v56.8H256V0h191a65 65 0 0165 65z" fill="#00ba9f"/><path d="M353.1 50.8H82.7a15 15 0 000 30H353a15 15 0 000-30z" fill="#e7f2ff"/><g fill="#9dcfff"><path d="M429.3 50.8h-15a15 15 0 000 30h15a15 15 0 000-30zM368.1 65.8a15 15 0 01-15 15H256v-30h97.1a15 15 0 0115 15z"/></g><path d="M334.6 449.2H177.4a15 15 0 010-30h157.2a15 15 0 110 30z" fill="#ffea80"/><path d="M349.6 434.2a15 15 0 01-15 15H256v-30h78.6a15 15 0 0115 15z" fill="#f3d332"/><path d="M400.3 224.3v120.4c0 22-18 40-40 40H324l-68-8.4-68 8.4h-36.3c-22 0-40-18-40-40V224.3c0-22.1 18-40 40-40h208.6c22 0 40 17.9 40 40z" fill="#00ddc0"/><path d="M400.3 224.3v120.4c0 22-18 40-40 40H324l-68-8.4v-192h104.3c22 0 40 17.9 40 40z" fill="#00ba9f"/><path d="M324 355.1v29.6H188v-28.5a68.7 68.7 0 0167-69c36-1 69 28.8 69 68z" fill="#ff5e94"/><path d="M324 355.1v29.6h-68V287a68 68 0 0168 68z" fill="#ff3980"/><circle cx="256" cy="267.2" fill="#ffbda9" transform="rotate(-67.5 256.1 267.1)" r="54"/><path d="M310 267.2a53.8 53.8 0 01-54 54v-108a54 54 0 0154 54z" fill="#ffa68c"/><path d="M442.3 408.4l-10.4-10.5 9-9a15 15 0 00-6.6-25.2l-54-14.4a15 15 0 00-18.3 18.4l14.5 53.9a15 15 0 0025 6.7l9.2-9.1 10.4 10.4a15 15 0 1021.2-21.2z" fill="#5a5a5a"/><path d="M441 388.8l-9.1 9.1 10.4 10.5a15 15 0 010 21.2l-76.4-76.4a15 15 0 0114.5-3.9l53.9 14.4a15 15 0 016.7 25.1z" fill="#444"/></svg>