<svg height="512" width="512" xmlns="http://www.w3.org/2000/svg"><path d="M256 483.3l101.5-25.6A262.2 262.2 0 00247.3.1 256 256 0 0075.7 437.8z" fill="#cbe2ff"/><path d="M447 256c0 84-40.5 158.4-102.9 205l92-23.2A256 256 0 00223.5 2 256 256 0 01447 256z" fill="#bed8fb"/><path d="M319.6 97c0-13.1-10.6-23.7-23.7-23.7h-81.5c-30.1 0-54.5 24.4-54.5 54.5v60.5H352v-59.7c0-13-10.6-23.7-23.7-23.7h-.8a8 8 0 01-8-8z" fill="#365e7d"/><path d="M328.4 105h-.8a8 8 0 01-8-8c0-13.1-10.6-23.7-23.7-23.7H287v115h65v-59.7c0-13-10.5-23.7-23.6-23.7z" fill="#2b4d66"/><path d="M425 372.4c-6.2-6.2-14-11-22.7-13.8l-70-22.1-76.3-2.7-76.4 2.7-69.9 22.1A56.9 56.9 0 0070 412.8V432a255.3 255.3 0 00177.2 80A262.6 262.6 0 00425 372.4z" fill="#4a80aa"/><path d="M442 432v-19.2c0-17.5-8-33.6-21.1-44.2A256.2 256.2 0 01223.5 510a258.3 258.3 0 0062.9.3c61-7.2 115.5-35.9 155.6-78.3z" fill="#407093"/><path d="M261.8 508.2c15.5-30.8 55.8-118.1 44.3-172.6l-50-19.5-50.2 19.5c-11.9 56.2 31.3 147.2 45.6 175.2l10.3-2.6z" fill="#e4f6ff"/><path d="M288.2 483.8l-20.3-80H244L224 483.7l25 27.9a260 260 0 0018.8-5z" fill="#e28086"/><path d="M249.3 511.9a258.8 258.8 0 0013.5 0l12.9-14.3a254 254 0 01-31.3 8.8z" fill="#dd636e"/><path d="M298.8 328.2v-45h-85.6v45c0 23.6 42.8 49.4 42.8 49.4s42.8-25.8 42.8-49.4z" fill="#ffddce"/><path d="M352 180.3h-16.3c-9 0-16.4-7.4-16.4-16.5v-9a17.4 17.4 0 00-22.9-16.5 128.8 128.8 0 01-80.8 0 17.4 17.4 0 00-22.9 16.5v9c0 9.1-7.4 16.5-16.5 16.5H160v27c0 6.8 5.6 12.4 12.4 12.4 2.2 0 4 1.7 4.1 3.9a79.7 79.7 0 00159.2 0 4.1 4.1 0 014-3.9c7 0 12.5-5.6 12.5-12.4v-27z" fill="#ffddce"/><path d="M335.7 180.3c-9 0-16.4-7.4-16.4-16.5v-9a17.4 17.4 0 00-22.9-16.5c-3.1 1-6.2 2-9.4 2.7v89a79.7 79.7 0 01-39.7 67.8 79.7 79.7 0 0088.3-74.2 4.1 4.1 0 014-3.9c7 0 12.5-5.6 12.5-12.4v-27h-16.4z" fill="#ffcbbe"/><g fill="#f4fbff"><path d="M213.2 316l-33.6 27.3 35.2 43.5c4.3 4.2 11 4.5 15.6.6l26.5-22zM298.8 316l-41.9 49.3 24.9 21.3a11.7 11.7 0 0015.6-.5l35-42.8z"/></g><path d="M213.2 316l-49.3 24.3a7.5 7.5 0 00-3.3 10l9.6 18.8a12.5 12.5 0 01-2.2 14.6l-6 6a12.5 12.5 0 00-3.1 12.7c11.6 35.5 67.7 89.9 89 109.5h4.2c-15.4-29.8-69.9-143.6-39-195.8zM344 383.7a12.5 12.5 0 01-2.3-14.6l9.7-18.7c1.9-3.7.4-8.3-3.4-10.1L298.8 316c31 52.2-23.5 165.9-39 195.9l4.4-.1c21.3-19.7 77.2-74 88.9-109.5 1.5-4.5.3-9.4-3-12.7l-6-6z" fill="#365e7d"/><path d="M256.9 365.3l-26 21.8 13.2 16.8H268l13.3-17.8z" fill="#dd636e"/></svg>