<svg height="512" width="512" xmlns="http://www.w3.org/2000/svg"><path d="M512 77.5V512H0V128.3L20 57h472z" fill="#f0f9ff"/><path d="M512 77.5V512H256V57h236z" fill="#bce4f4"/><path d="M306.3 230.8v25.5h-30v-25.5a20.3 20.3 0 00-40.6 0v25.5h-30v-25.5a50.3 50.3 0 01100.6 0z" fill="#393d9d"/><path d="M306.3 230.8v25.5h-30v-25.5c0-11.2-9.1-20.3-20.3-20.3v-30a50.3 50.3 0 0150.3 50.3z" fill="#350d65"/><path d="M173 246.3h166V352H173z" fill="#ffb721"/><path d="M256 246.3h83V352h-83z" fill="#fe9b2a"/><path d="M79.7 337h352.6v101H79.7z" fill="#bde239"/><path d="M256 337h176.3v101H256z" fill="#8bbc43"/><path d="M512 0v77.5H294l-38 50.8H0V0z" fill="#bde239"/><path d="M48.8 47.5h30v30h-30z" fill="#fe4945"/><path d="M110.3 47.5h30v30h-30zM171.8 47.5h30v30h-30z" fill="#f0f9ff"/><path d="M512 0v77.5H294l-38 50.8V0z" fill="#8bbc43"/><g fill="#393d9d"><path d="M121 371.7h30v30h-30zM181 371.7h30v30h-30zM241 371.7h30v30h-30z"/></g><path d="M301 371.7h30v30h-30zM361 371.7h30v30h-30zM256 371.7h15v30h-15z" fill="#350d65"/></svg>